<?xml version="1.0" standalone="no"?><!DOCTYPE svg PUBLIC "-//W3C//DTD SVG 1.1//EN" "http://www.w3.org/Graphics/SVG/1.1/DTD/svg11.dtd"><svg t="1619054993734" class="icon" viewBox="0 0 1024 1024" version="1.1" xmlns="http://www.w3.org/2000/svg" p-id="9952" xmlns:xlink="http://www.w3.org/1999/xlink" width="300" height="300"><defs><style type="text/css"></style></defs><path d="M810.666667 128a128 128 0 0 1 127.786666 120.490667L938.666667 256v512a128 128 0 0 1-120.490667 127.786667L810.666667 896h-127.402667a42.666667 42.666667 0 0 1-4.992-85.034667l4.992-0.298666H810.666667a42.666667 42.666667 0 0 0 42.368-37.674667L853.333333 768V256a42.666667 42.666667 0 0 0-37.674666-42.368L810.666667 213.333333h-127.317334a42.666667 42.666667 0 0 1-4.992-85.034666L683.349333 128H810.666667z m-298.837334 0a42.666667 42.666667 0 0 1 4.992 85.034667L511.829333 213.333333H213.333333a42.666667 42.666667 0 0 0-42.368 37.674667L170.666667 256v512a42.666667 42.666667 0 0 0 37.674666 42.368L213.333333 810.666667h299.818667a42.666667 42.666667 0 0 1 4.949333 85.034666l-4.949333 0.298667H213.333333a128 128 0 0 1-127.786666-120.490667L85.333333 768V256a128 128 0 0 1 120.490667-127.786667L213.333333 128h298.496z" fill="#F5F5F5" p-id="9953" data-spm-anchor-id="a313x.7781069.0.i20" class="selected"></path><path d="M469.333333 42.666667m42.666667 0l0 0q42.666667 0 42.666667 42.666666l0 853.333334q0 42.666667-42.666667 42.666666l0 0q-42.666667 0-42.666667-42.666666l0-853.333334q0-42.666667 42.666667-42.666666Z" fill="#F5F5F5" p-id="9954" data-spm-anchor-id="a313x.7781069.0.i22" class="selected"></path></svg>