<?xml version="1.0" standalone="no"?><!DOCTYPE svg PUBLIC "-//W3C//DTD SVG 1.1//EN" "http://www.w3.org/Graphics/SVG/1.1/DTD/svg11.dtd"><svg t="1611901305893" class="icon" viewBox="0 0 1024 1024" version="1.1" xmlns="http://www.w3.org/2000/svg" p-id="3743" xmlns:xlink="http://www.w3.org/1999/xlink" width="32" height="32"><defs><style type="text/css"></style></defs><path d="M902.095238 314.514286V853.333333a97.52381 97.52381 0 0 1-97.523809 97.52381H219.428571a97.52381 97.52381 0 0 1-97.523809-97.52381V170.666667a97.52381 97.52381 0 0 1 97.523809-97.52381h441.295239z" fill="#ED5050" p-id="3744"></path><path d="M660.72381 265.752381V73.142857l241.371428 241.371429h-192.609524a48.761905 48.761905 0 0 1-48.761904-48.761905z" fill="#D43030" p-id="3745"></path><path d="M632.441905 587.093333a331.824762 331.824762 0 0 0-59.733334 6.582857 282.819048 282.819048 0 0 1-58.758095-75.824761c16.091429-53.150476 17.066667-88.990476 4.632381-106.057143a31.451429 31.451429 0 0 0-24.380952-12.434286 30.232381 30.232381 0 0 0-29.257143 15.11619c-17.066667 28.525714 7.558095 84.358095 19.017143 107.276191a682.666667 682.666667 0 0 1-50.468572 117.51619c-90.209524 38.765714-92.16 62.415238-92.16 70.948572a28.038095 28.038095 0 0 0 16.091429 25.6 24.380952 24.380952 0 0 0 14.384762 3.900952c24.380952 0 51.2-26.575238 80.457143-78.750476a689.737143 689.737143 0 0 1 112.883809-35.84 123.12381 123.12381 0 0 0 70.217143 28.281905c16.091429 0 47.299048 0 47.299048-32.182857 0-11.702857-5.607619-33.158095-50.224762-34.133334z m-259.657143 124.099048h-2.925714a77.531429 77.531429 0 0 1 34.133333-27.550476 60.220952 60.220952 0 0 1-31.207619 27.550476z m116.540952-282.331429a5.607619 5.607619 0 0 1 3.657143 0h2.925714a77.531429 77.531429 0 0 1 0 48.761905 76.8 76.8 0 0 1-6.582857-48.761905z m48.761905 183.832381a536.380952 536.380952 0 0 0-64.365714 19.017143v-1.950476h-1.950476c10.48381-20.967619 19.992381-42.666667 28.525714-64.609524v-1.706666a295.497143 295.497143 0 0 0 38.034286 46.323809h-2.925715z m97.52381 12.434286a78.019048 78.019048 0 0 1-28.525715-7.801905 119.710476 119.710476 0 0 1 24.380953-1.706666c19.017143 0 22.674286 4.632381 22.674285 7.558095a43.398095 43.398095 0 0 1-18.773333 1.950476z" fill="#FFFFFF" p-id="3746"></path></svg>