<?xml version="1.0" standalone="no"?><!DOCTYPE svg PUBLIC "-//W3C//DTD SVG 1.1//EN" "http://www.w3.org/Graphics/SVG/1.1/DTD/svg11.dtd"><svg t="1618975876368" class="icon" viewBox="0 0 1024 1024" version="1.1" xmlns="http://www.w3.org/2000/svg" p-id="9925" xmlns:xlink="http://www.w3.org/1999/xlink" width="300" height="300"><defs><style type="text/css"></style></defs><path d="M537.324308 90.584615a27.569231 27.569231 0 0 1 27.332923 23.827693l0.236307 3.741538v736.256a27.569231 27.569231 0 0 1-54.902153 3.741539l-0.236308-3.741539v-40.881231H157.538462a27.569231 27.569231 0 0 1-27.332924-23.827692l-0.236307-3.741538V168.566154a27.569231 27.569231 0 0 1 23.827692-27.332923L157.538462 140.996923l352.216615-0.039385V118.153846a27.569231 27.569231 0 0 1 27.569231-27.569231z m379.470769 50.412308a27.569231 27.569231 0 0 1 27.293538 23.827692l0.275693 3.741539v617.393231a27.569231 27.569231 0 0 1-23.827693 27.332923l-3.741538 0.236307h-284.435692a27.569231 27.569231 0 0 1-3.741539-54.902153l3.741539-0.236308h256.827077V196.096h-256.787693a27.569231 27.569231 0 0 1-27.332923-23.788308l-0.275692-3.741538a27.569231 27.569231 0 0 1 23.827692-27.332923l3.741539-0.236308h284.435692zM509.755077 758.390154v-90.663385l-92.553846 90.663385h92.553846z m0-145.762462v-103.581538l-255.409231 249.344h106.535385l148.873846-145.762462z m0-158.680615v-87.433846l-324.686769 310.153846 0.039384 81.723077h12.839385l311.808-304.443077z m0-243.396923l-324.686769 313.580308v98.067692l324.686769-310.114462V210.550154z m-41.708308-14.454154H360.644923L185.068308 364.701538v104.684308l282.978461-273.289846z m-164.312615 0H185.107692l-0.039384 113.979077 118.665846-113.979077z" p-id="9926" data-spm-anchor-id="a313x.7781069.0.i12" class="selected" fill="#F5F5F5"></path></svg>